<?xml version="1.0" encoding="utf-8" standalone="no"?>
<!DOCTYPE svg PUBLIC "-//W3C//DTD SVG 1.1//EN"
  "http://www.w3.org/Graphics/SVG/1.1/DTD/svg11.dtd">
<svg xmlns:xlink="http://www.w3.org/1999/xlink" width="28.8pt" height="43.485pt" viewBox="0 0 28.8 43.485" xmlns="http://www.w3.org/2000/svg" version="1.1">
 <metadata>
  <rdf:RDF xmlns:dc="http://purl.org/dc/elements/1.1/" xmlns:cc="http://creativecommons.org/ns#" xmlns:rdf="http://www.w3.org/1999/02/22-rdf-syntax-ns#">
   <cc:Work>
    <dc:type rdf:resource="http://purl.org/dc/dcmitype/StillImage"/>
    <dc:date>2025-07-23T02:13:15.376384</dc:date>
    <dc:format>image/svg+xml</dc:format>
    <dc:creator>
     <cc:Agent>
      <dc:title>Matplotlib v3.6.3, https://matplotlib.org/</dc:title>
     </cc:Agent>
    </dc:creator>
   </cc:Work>
  </rdf:RDF>
 </metadata>
 <defs>
  <style type="text/css">*{stroke-linejoin: round; stroke-linecap: butt}</style>
 </defs>
 <g id="figure_1">
  <g id="patch_1">
   <path d="M 0 43.485 
L 28.8 43.485 
L 28.8 -0 
L 0 -0 
z
" style="fill: #ffffff"/>
  </g>
  <g id="axes_1">
   <g id="text_1">
    <!-- D -->
    <g style="fill: #333333" transform="translate(0 40.08) scale(0.48 -0.48)">
     <defs>
      <path id="GL-DancingMen-44" d="M 2618 -384 
L 2854 870 
Q 2515 1491 1997 2106 
Q 1971 1926 1958 1827 
Q 1946 1728 1939 1677 
Q 1926 1574 1916 1536 
Q 1907 1498 1882 1478 
Q 2042 1440 2131 1321 
Q 2221 1203 2221 1056 
Q 2221 826 2041 640 
Q 1862 454 1568 454 
Q 1370 454 1245 598 
Q 1120 742 1120 934 
Q 1120 1139 1254 1296 
Q 1389 1453 1581 1478 
Q 1574 1485 1558 1513 
Q 1542 1542 1542 1581 
Q 1542 1619 1603 1859 
Q 1664 2099 1766 2970 
Q 1510 3309 1356 3837 
Q 1203 4365 1158 4992 
Q 851 4934 755 4934 
Q 672 4934 640 4966 
Q 608 4998 608 5082 
Q 608 5222 752 5283 
Q 896 5344 1107 5344 
Q 1498 5344 1504 5197 
Q 1536 4582 1667 4054 
Q 1798 3526 1958 3258 
Q 2317 3661 2518 4102 
Q 2720 4544 2906 5146 
Q 2944 5280 3155 5280 
Q 3437 5280 3616 5206 
Q 3795 5133 3795 4954 
Q 3795 4819 3654 4819 
Q 3603 4819 3456 4851 
Q 3245 4896 3258 4896 
Q 2784 3590 2080 2944 
L 2029 2509 
Q 2464 2067 2854 1555 
Q 3245 1043 3245 845 
Q 3245 749 3155 672 
L 3091 429 
L 3654 371 
L 3533 -454 
L 2618 -384 
z
M 1632 742 
Q 1741 742 1837 803 
Q 1933 864 1933 1005 
Q 1933 1094 1869 1161 
Q 1805 1229 1696 1229 
Q 1600 1229 1510 1168 
Q 1421 1107 1421 966 
Q 1421 864 1478 803 
Q 1536 742 1632 742 
z
M 3347 134 
L 3059 154 
L 2995 -141 
L 3296 -166 
L 3347 134 
z
" transform="scale(0.015625)"/>
     </defs>
     <use xlink:href="#GL-DancingMen-44"/>
    </g>
   </g>
  </g>
 </g>
</svg>
