<?xml version="1.0" encoding="utf-8" standalone="no"?>
<!DOCTYPE svg PUBLIC "-//W3C//DTD SVG 1.1//EN"
  "http://www.w3.org/Graphics/SVG/1.1/DTD/svg11.dtd">
<svg xmlns:xlink="http://www.w3.org/1999/xlink" width="28.8pt" height="38.9775pt" viewBox="0 0 28.8 38.9775" xmlns="http://www.w3.org/2000/svg" version="1.1">
 <metadata>
  <rdf:RDF xmlns:dc="http://purl.org/dc/elements/1.1/" xmlns:cc="http://creativecommons.org/ns#" xmlns:rdf="http://www.w3.org/1999/02/22-rdf-syntax-ns#">
   <cc:Work>
    <dc:type rdf:resource="http://purl.org/dc/dcmitype/StillImage"/>
    <dc:date>2025-07-23T02:13:15.761163</dc:date>
    <dc:format>image/svg+xml</dc:format>
    <dc:creator>
     <cc:Agent>
      <dc:title>Matplotlib v3.6.3, https://matplotlib.org/</dc:title>
     </cc:Agent>
    </dc:creator>
   </cc:Work>
  </rdf:RDF>
 </metadata>
 <defs>
  <style type="text/css">*{stroke-linejoin: round; stroke-linecap: butt}</style>
 </defs>
 <g id="figure_1">
  <g id="patch_1">
   <path d="M 0 38.9775 
L 28.8 38.9775 
L 28.8 0 
L 0 0 
z
" style="fill: #ffffff"/>
  </g>
  <g id="axes_1">
   <g id="text_1">
    <!-- k -->
    <g style="fill: #333333" transform="translate(0 35.6625) scale(0.48 -0.48)">
     <defs>
      <path id="GL-DancingMen-6b" d="M 2598 -294 
Q 2208 -294 2202 -141 
Q 2170 474 2038 1002 
Q 1907 1530 1747 1792 
Q 1389 1395 1190 953 
Q 992 512 800 -96 
Q 762 -230 550 -230 
Q 275 -230 92 -153 
Q -90 -77 -90 96 
Q -90 230 51 230 
Q 102 230 250 198 
Q 461 154 448 154 
Q 922 1459 1626 2106 
Q 1094 2330 841 2547 
Q 589 2765 589 2906 
Q 589 3078 909 3193 
Q 1229 3309 1760 3366 
Q 1773 3469 1785 3510 
Q 1798 3552 1824 3571 
Q 1664 3610 1574 3728 
Q 1485 3846 1485 3994 
Q 1485 4224 1664 4409 
Q 1843 4595 2138 4595 
Q 2336 4595 2461 4451 
Q 2586 4307 2586 4122 
Q 2586 3910 2451 3756 
Q 2317 3603 2125 3571 
Q 2150 3533 2150 3469 
Q 2150 3437 2131 3328 
Q 2093 3168 2061 2931 
Q 2355 3174 2604 3433 
Q 2854 3693 3251 4134 
Q 3360 4256 3437 4256 
Q 3488 4256 3542 4217 
Q 3597 4179 3597 4109 
Q 3597 3949 3085 3449 
Q 2573 2950 1997 2534 
Q 1978 2336 1939 2080 
Q 2195 1741 2348 1213 
Q 2502 685 2547 58 
Q 2886 122 2950 122 
Q 3034 122 3066 86 
Q 3098 51 3098 -32 
Q 3098 -173 2954 -233 
Q 2810 -294 2598 -294 
z
M 2010 3821 
Q 2106 3821 2195 3881 
Q 2285 3942 2285 4083 
Q 2285 4186 2227 4246 
Q 2170 4307 2074 4307 
Q 1965 4307 1869 4246 
Q 1773 4186 1773 4045 
Q 1773 3955 1837 3888 
Q 1901 3821 2010 3821 
z
M 1734 3078 
Q 1331 3027 1011 2906 
Q 1235 2650 1664 2496 
L 1734 3078 
z
" transform="scale(0.015625)"/>
     </defs>
     <use xlink:href="#GL-DancingMen-6b"/>
    </g>
   </g>
  </g>
 </g>
</svg>
