<?xml version="1.0" encoding="utf-8" standalone="no"?>
<!DOCTYPE svg PUBLIC "-//W3C//DTD SVG 1.1//EN"
  "http://www.w3.org/Graphics/SVG/1.1/DTD/svg11.dtd">
<svg xmlns:xlink="http://www.w3.org/1999/xlink" width="28.8pt" height="42.0975pt" viewBox="0 0 28.8 42.0975" xmlns="http://www.w3.org/2000/svg" version="1.1">
 <metadata>
  <rdf:RDF xmlns:dc="http://purl.org/dc/elements/1.1/" xmlns:cc="http://creativecommons.org/ns#" xmlns:rdf="http://www.w3.org/1999/02/22-rdf-syntax-ns#">
   <cc:Work>
    <dc:type rdf:resource="http://purl.org/dc/dcmitype/StillImage"/>
    <dc:date>2025-07-23T02:13:15.784659</dc:date>
    <dc:format>image/svg+xml</dc:format>
    <dc:creator>
     <cc:Agent>
      <dc:title>Matplotlib v3.6.3, https://matplotlib.org/</dc:title>
     </cc:Agent>
    </dc:creator>
   </cc:Work>
  </rdf:RDF>
 </metadata>
 <defs>
  <style type="text/css">*{stroke-linejoin: round; stroke-linecap: butt}</style>
 </defs>
 <g id="figure_1">
  <g id="patch_1">
   <path d="M 0 42.0975 
L 28.8 42.0975 
L 28.8 -0 
L 0 -0 
z
" style="fill: #ffffff"/>
  </g>
  <g id="axes_1">
   <g id="text_1">
    <!-- K -->
    <g style="fill: #333333" transform="translate(0 38.7825) scale(0.48 -0.48)">
     <defs>
      <path id="GL-DancingMen-4b" d="M 2592 -333 
Q 2202 -333 2195 -179 
Q 2163 435 2032 963 
Q 1901 1491 1741 1754 
Q 1382 1357 1184 918 
Q 986 480 794 -128 
Q 755 -269 544 -269 
Q 269 -269 86 -192 
Q -96 -115 -96 58 
Q -96 192 45 192 
Q 64 192 218 166 
Q 442 122 442 122 
Q 909 1414 1619 2067 
Q 1088 2291 835 2508 
Q 582 2726 582 2867 
Q 582 3194 1754 3334 
Q 1766 3430 1779 3472 
Q 1792 3514 1818 3533 
Q 1658 3578 1568 3693 
Q 1478 3808 1478 3955 
Q 1478 4186 1657 4371 
Q 1837 4557 2131 4557 
Q 2330 4557 2454 4413 
Q 2579 4269 2579 4083 
Q 2579 3872 2444 3718 
Q 2310 3565 2118 3533 
Q 2144 3494 2144 3430 
Q 2144 3398 2125 3290 
Q 2086 3130 2054 2893 
Q 2682 3405 3232 4070 
L 3354 5280 
L 4294 5267 
L 4205 4442 
L 3603 4442 
L 3578 4109 
L 3590 4058 
Q 3590 3904 3091 3421 
Q 2592 2938 1990 2496 
Q 1971 2298 1933 2042 
Q 2189 1702 2342 1174 
Q 2496 646 2541 19 
Q 2880 83 2944 83 
Q 3027 83 3059 48 
Q 3091 13 3091 -70 
Q 3091 -211 2947 -272 
Q 2803 -333 2592 -333 
z
M 3942 4717 
L 3968 5018 
L 3667 5018 
L 3642 4717 
L 3942 4717 
z
M 2003 3782 
Q 2099 3782 2188 3843 
Q 2278 3904 2278 4045 
Q 2278 4147 2220 4208 
Q 2163 4269 2067 4269 
Q 1958 4269 1862 4208 
Q 1766 4147 1766 4006 
Q 1766 3917 1830 3849 
Q 1894 3782 2003 3782 
z
M 1728 3046 
Q 1306 2982 1005 2867 
Q 1229 2611 1658 2458 
L 1728 3046 
z
" transform="scale(0.015625)"/>
     </defs>
     <use xlink:href="#GL-DancingMen-4b"/>
    </g>
   </g>
  </g>
 </g>
</svg>
