<?xml version="1.0" encoding="utf-8" standalone="no"?>
<!DOCTYPE svg PUBLIC "-//W3C//DTD SVG 1.1//EN"
  "http://www.w3.org/Graphics/SVG/1.1/DTD/svg11.dtd">
<svg xmlns:xlink="http://www.w3.org/1999/xlink" width="28.8pt" height="41.2275pt" viewBox="0 0 28.8 41.2275" xmlns="http://www.w3.org/2000/svg" version="1.1">
 <metadata>
  <rdf:RDF xmlns:dc="http://purl.org/dc/elements/1.1/" xmlns:cc="http://creativecommons.org/ns#" xmlns:rdf="http://www.w3.org/1999/02/22-rdf-syntax-ns#">
   <cc:Work>
    <dc:type rdf:resource="http://purl.org/dc/dcmitype/StillImage"/>
    <dc:date>2025-07-23T02:13:15.854127</dc:date>
    <dc:format>image/svg+xml</dc:format>
    <dc:creator>
     <cc:Agent>
      <dc:title>Matplotlib v3.6.3, https://matplotlib.org/</dc:title>
     </cc:Agent>
    </dc:creator>
   </cc:Work>
  </rdf:RDF>
 </metadata>
 <defs>
  <style type="text/css">*{stroke-linejoin: round; stroke-linecap: butt}</style>
 </defs>
 <g id="figure_1">
  <g id="patch_1">
   <path d="M 0 41.2275 
L 28.8 41.2275 
L 28.8 0 
L 0 0 
z
" style="fill: #ffffff"/>
  </g>
  <g id="axes_1">
   <g id="text_1">
    <!-- L -->
    <g style="fill: #333333" transform="translate(0 37.9125) scale(0.48 -0.48)">
     <defs>
      <path id="GL-DancingMen-4c" d="M 2842 -243 
Q 2714 -243 2541 -176 
Q 2368 -109 2243 -9 
Q 2118 90 2118 179 
Q 2118 230 2179 326 
Q 2240 422 2374 602 
Q 2630 947 2829 1267 
Q 2413 1478 1958 1594 
Q 1485 1530 1043 1331 
Q 1158 960 1274 691 
Q 1338 518 1366 425 
Q 1395 333 1395 256 
Q 1395 205 1321 109 
Q 1248 13 1088 -64 
Q 928 -141 691 -141 
Q 563 -141 502 -61 
Q 442 19 442 83 
Q 442 160 566 214 
Q 691 269 966 333 
Q 806 806 736 1049 
Q 666 1293 666 1408 
Q 666 1536 800 1613 
Q 934 1690 1148 1734 
Q 1363 1779 1856 1856 
Q 1869 2080 1920 2483 
Q 1286 2624 1033 2733 
Q 781 2842 781 2970 
Q 781 3046 944 3545 
Q 1107 4045 1158 4147 
L 1190 4416 
L 582 4416 
L 634 5254 
L 1581 5254 
L 1504 4154 
Q 1530 4115 1530 4070 
Q 1530 4026 1504 3952 
Q 1478 3878 1434 3776 
Q 1248 3296 1171 3072 
Q 1491 2893 1946 2784 
L 1990 3142 
Q 1997 3162 2003 3213 
Q 2010 3264 2042 3283 
Q 1882 3322 1795 3440 
Q 1709 3558 1709 3706 
Q 1709 3936 1888 4121 
Q 2067 4307 2355 4307 
Q 2554 4307 2678 4163 
Q 2803 4019 2803 3834 
Q 2803 3622 2668 3468 
Q 2534 3315 2342 3283 
Q 2349 3277 2365 3248 
Q 2381 3219 2381 3181 
Q 2381 3168 2355 3072 
Q 2790 2982 3078 2838 
Q 3366 2694 3366 2547 
Q 3366 2374 2992 2147 
Q 2618 1920 2221 1818 
Q 2752 1690 2979 1571 
Q 3206 1453 3206 1318 
Q 3206 1229 3084 1014 
Q 2963 800 2592 282 
Q 2861 179 2969 105 
Q 3078 32 3078 -70 
Q 3078 -154 3004 -198 
Q 2931 -243 2842 -243 
z
M 1203 4704 
L 1229 5005 
L 922 5005 
L 896 4704 
L 1203 4704 
z
M 2234 3533 
Q 2323 3533 2416 3593 
Q 2509 3654 2509 3795 
Q 2509 3898 2448 3958 
Q 2387 4019 2291 4019 
Q 2189 4019 2089 3958 
Q 1990 3898 1990 3757 
Q 1990 3667 2057 3600 
Q 2125 3533 2234 3533 
z
M 2208 2170 
Q 2726 2342 2931 2534 
Q 2688 2675 2291 2784 
Q 2259 2630 2208 2170 
z
" transform="scale(0.015625)"/>
     </defs>
     <use xlink:href="#GL-DancingMen-4c"/>
    </g>
   </g>
  </g>
 </g>
</svg>
