<?xml version="1.0" encoding="utf-8" standalone="no"?>
<!DOCTYPE svg PUBLIC "-//W3C//DTD SVG 1.1//EN"
  "http://www.w3.org/Graphics/SVG/1.1/DTD/svg11.dtd">
<svg xmlns:xlink="http://www.w3.org/1999/xlink" width="28.8pt" height="38.9775pt" viewBox="0 0 28.8 38.9775" xmlns="http://www.w3.org/2000/svg" version="1.1">
 <metadata>
  <rdf:RDF xmlns:dc="http://purl.org/dc/elements/1.1/" xmlns:cc="http://creativecommons.org/ns#" xmlns:rdf="http://www.w3.org/1999/02/22-rdf-syntax-ns#">
   <cc:Work>
    <dc:type rdf:resource="http://purl.org/dc/dcmitype/StillImage"/>
    <dc:date>2025-07-23T02:13:15.927882</dc:date>
    <dc:format>image/svg+xml</dc:format>
    <dc:creator>
     <cc:Agent>
      <dc:title>Matplotlib v3.6.3, https://matplotlib.org/</dc:title>
     </cc:Agent>
    </dc:creator>
   </cc:Work>
  </rdf:RDF>
 </metadata>
 <defs>
  <style type="text/css">*{stroke-linejoin: round; stroke-linecap: butt}</style>
 </defs>
 <g id="figure_1">
  <g id="patch_1">
   <path d="M 0 38.9775 
L 28.8 38.9775 
L 28.8 0 
L 0 0 
z
" style="fill: #ffffff"/>
  </g>
  <g id="axes_1">
   <g id="text_1">
    <!-- n -->
    <g style="fill: #333333" transform="translate(0 35.6625) scale(0.48 -0.48)">
     <defs>
      <path id="GL-DancingMen-6e" d="M 2330 -83 
Q 2202 -83 2029 -16 
Q 1856 51 1731 153 
Q 1606 256 1606 346 
Q 1606 390 1680 505 
Q 1754 621 1856 762 
Q 2150 1165 2317 1434 
Q 1850 1658 1446 1754 
Q 1005 1702 531 1491 
Q 595 1274 665 1094 
Q 736 915 755 864 
Q 806 730 844 614 
Q 883 499 883 416 
Q 883 365 806 269 
Q 730 173 573 96 
Q 416 19 179 19 
Q 51 19 -9 99 
Q -70 179 -70 243 
Q -70 326 51 377 
Q 173 429 454 493 
Q 301 954 227 1206 
Q 154 1459 154 1568 
Q 154 1747 410 1833 
Q 666 1920 1267 2010 
Q 774 2221 534 2432 
Q 294 2643 294 2784 
Q 294 3104 1466 3245 
Q 1478 3341 1491 3382 
Q 1504 3424 1530 3443 
Q 1370 3488 1280 3606 
Q 1190 3725 1190 3872 
Q 1190 4102 1372 4284 
Q 1555 4467 1843 4467 
Q 2042 4467 2166 4323 
Q 2291 4179 2291 3994 
Q 2291 3782 2156 3628 
Q 2022 3475 1830 3443 
Q 1856 3405 1856 3341 
Q 1856 3302 1837 3206 
Q 1798 3046 1766 2810 
Q 2061 3046 2310 3305 
Q 2560 3565 2957 4006 
Q 3008 4064 3049 4099 
Q 3091 4134 3142 4134 
Q 3194 4134 3251 4096 
Q 3309 4058 3309 3981 
Q 3309 3827 2793 3324 
Q 2278 2822 1709 2406 
L 1658 1997 
Q 2189 1862 2441 1744 
Q 2694 1626 2694 1478 
Q 2694 1389 2576 1177 
Q 2458 966 2080 442 
Q 2342 346 2454 269 
Q 2566 192 2566 96 
Q 2566 6 2492 -38 
Q 2419 -83 2330 -83 
z
M 1715 3693 
Q 1811 3693 1900 3753 
Q 1990 3814 1990 3955 
Q 1990 4058 1932 4118 
Q 1875 4179 1779 4179 
Q 1677 4179 1577 4118 
Q 1478 4058 1478 3917 
Q 1478 3827 1545 3760 
Q 1613 3693 1715 3693 
z
M 1446 2957 
Q 1030 2893 717 2784 
Q 922 2541 1370 2368 
L 1446 2957 
z
" transform="scale(0.015625)"/>
     </defs>
     <use xlink:href="#GL-DancingMen-6e"/>
    </g>
   </g>
  </g>
 </g>
</svg>
