<?xml version="1.0" encoding="utf-8" standalone="no"?>
<!DOCTYPE svg PUBLIC "-//W3C//DTD SVG 1.1//EN"
  "http://www.w3.org/Graphics/SVG/1.1/DTD/svg11.dtd">
<svg xmlns:xlink="http://www.w3.org/1999/xlink" width="28.8pt" height="42.0975pt" viewBox="0 0 28.8 42.0975" xmlns="http://www.w3.org/2000/svg" version="1.1">
 <metadata>
  <rdf:RDF xmlns:dc="http://purl.org/dc/elements/1.1/" xmlns:cc="http://creativecommons.org/ns#" xmlns:rdf="http://www.w3.org/1999/02/22-rdf-syntax-ns#">
   <cc:Work>
    <dc:type rdf:resource="http://purl.org/dc/dcmitype/StillImage"/>
    <dc:date>2025-07-23T02:13:16.032505</dc:date>
    <dc:format>image/svg+xml</dc:format>
    <dc:creator>
     <cc:Agent>
      <dc:title>Matplotlib v3.6.3, https://matplotlib.org/</dc:title>
     </cc:Agent>
    </dc:creator>
   </cc:Work>
  </rdf:RDF>
 </metadata>
 <defs>
  <style type="text/css">*{stroke-linejoin: round; stroke-linecap: butt}</style>
 </defs>
 <g id="figure_1">
  <g id="patch_1">
   <path d="M 0 42.0975 
L 28.8 42.0975 
L 28.8 -0 
L 0 -0 
z
" style="fill: #ffffff"/>
  </g>
  <g id="axes_1">
   <g id="text_1">
    <!-- O -->
    <g style="fill: #333333" transform="translate(0 38.7825) scale(0.48 -0.48)">
     <defs>
      <path id="GL-DancingMen-4f" d="M 2618 -333 
Q 2227 -333 2221 -179 
Q 2189 474 2045 1027 
Q 1901 1581 1722 1830 
Q 1299 1773 845 1581 
Q 909 1363 979 1184 
Q 1050 1005 1069 954 
Q 1082 922 1123 813 
Q 1165 704 1181 633 
Q 1197 563 1197 506 
Q 1197 454 1123 358 
Q 1050 262 890 185 
Q 730 109 493 109 
Q 365 109 304 189 
Q 243 269 243 333 
Q 243 410 364 464 
Q 486 518 768 582 
Q 608 1056 537 1299 
Q 467 1542 467 1658 
Q 467 1786 604 1866 
Q 742 1946 966 1990 
Q 1190 2035 1658 2106 
L 1696 2509 
Q 1254 2963 867 3465 
Q 480 3968 480 4166 
Q 480 4250 521 4304 
Q 563 4358 634 4358 
Q 755 4358 845 4192 
Q 1158 3584 1734 2906 
L 1792 3334 
Q 1805 3437 1811 3475 
Q 1818 3514 1843 3533 
Q 1683 3578 1593 3693 
Q 1504 3808 1504 3955 
Q 1504 4186 1683 4371 
Q 1862 4557 2157 4557 
Q 2355 4557 2480 4413 
Q 2605 4269 2605 4083 
Q 2605 3872 2470 3718 
Q 2336 3565 2144 3533 
Q 2170 3494 2170 3430 
Q 2170 3398 2150 3290 
Q 2112 3130 2080 2893 
Q 2707 3405 3258 4070 
L 3379 5280 
L 4320 5267 
L 4230 4442 
L 3629 4442 
L 3603 4109 
L 3616 4058 
Q 3616 3904 3117 3421 
Q 2618 2938 2016 2496 
Q 1997 2298 1958 2042 
Q 2214 1702 2368 1174 
Q 2522 646 2566 19 
Q 2906 83 2970 83 
Q 3053 83 3085 48 
Q 3117 13 3117 -70 
Q 3117 -211 2973 -272 
Q 2829 -333 2618 -333 
z
M 3968 4717 
L 3994 5018 
L 3693 5018 
L 3667 4717 
L 3968 4717 
z
M 2029 3782 
Q 2125 3782 2214 3843 
Q 2304 3904 2304 4045 
Q 2304 4147 2246 4208 
Q 2189 4269 2093 4269 
Q 1990 4269 1891 4208 
Q 1792 4147 1792 4006 
Q 1792 3917 1856 3849 
Q 1920 3782 2029 3782 
z
" transform="scale(0.015625)"/>
     </defs>
     <use xlink:href="#GL-DancingMen-4f"/>
    </g>
   </g>
  </g>
 </g>
</svg>
