<?xml version="1.0" encoding="utf-8" standalone="no"?>
<!DOCTYPE svg PUBLIC "-//W3C//DTD SVG 1.1//EN"
  "http://www.w3.org/Graphics/SVG/1.1/DTD/svg11.dtd">
<svg xmlns:xlink="http://www.w3.org/1999/xlink" width="28.8pt" height="38.9775pt" viewBox="0 0 28.8 38.9775" xmlns="http://www.w3.org/2000/svg" version="1.1">
 <metadata>
  <rdf:RDF xmlns:dc="http://purl.org/dc/elements/1.1/" xmlns:cc="http://creativecommons.org/ns#" xmlns:rdf="http://www.w3.org/1999/02/22-rdf-syntax-ns#">
   <cc:Work>
    <dc:type rdf:resource="http://purl.org/dc/dcmitype/StillImage"/>
    <dc:date>2025-07-23T02:13:16.262771</dc:date>
    <dc:format>image/svg+xml</dc:format>
    <dc:creator>
     <cc:Agent>
      <dc:title>Matplotlib v3.6.3, https://matplotlib.org/</dc:title>
     </cc:Agent>
    </dc:creator>
   </cc:Work>
  </rdf:RDF>
 </metadata>
 <defs>
  <style type="text/css">*{stroke-linejoin: round; stroke-linecap: butt}</style>
 </defs>
 <g id="figure_1">
  <g id="patch_1">
   <path d="M 0 38.9775 
L 28.8 38.9775 
L 28.8 0 
L 0 0 
z
" style="fill: #ffffff"/>
  </g>
  <g id="axes_1">
   <g id="text_1">
    <!-- q -->
    <g style="fill: #333333" transform="translate(0 35.6625) scale(0.48 -0.48)">
     <defs>
      <path id="GL-DancingMen-71" d="M 102 -416 
Q 13 -416 -64 -371 
Q -141 -326 -141 -269 
Q -141 -154 -35 -67 
Q 70 19 339 19 
Q 461 19 538 6 
Q 570 339 640 748 
Q 710 1158 730 1261 
Q 826 1766 877 2131 
Q 934 2528 973 3046 
Q 986 3155 995 3283 
Q 1005 3411 1024 3558 
Q 1030 3578 1036 3626 
Q 1043 3674 1075 3693 
Q 915 3738 825 3856 
Q 736 3974 736 4122 
Q 736 4352 915 4534 
Q 1094 4717 1389 4717 
Q 1587 4717 1712 4573 
Q 1837 4429 1837 4243 
Q 1837 4032 1702 3878 
Q 1568 3725 1376 3693 
Q 1402 3642 1402 3584 
Q 1402 3546 1382 3437 
Q 1286 3034 1184 2208 
Q 1440 1869 1593 1341 
Q 1747 813 1798 179 
Q 2131 243 2202 243 
Q 2285 243 2317 211 
Q 2349 179 2349 96 
Q 2349 -45 2208 -105 
Q 2067 -166 1850 -166 
Q 1453 -166 1446 -19 
Q 1421 518 1325 966 
Q 1229 1414 1114 1683 
L 851 -166 
Q 845 -256 595 -336 
Q 346 -416 102 -416 
z
M 1261 3942 
Q 1357 3942 1446 4003 
Q 1536 4064 1536 4205 
Q 1536 4307 1478 4368 
Q 1421 4429 1325 4429 
Q 1216 4429 1120 4368 
Q 1024 4307 1024 4166 
Q 1024 4077 1091 4009 
Q 1158 3942 1261 3942 
z
" transform="scale(0.015625)"/>
     </defs>
     <use xlink:href="#GL-DancingMen-71"/>
    </g>
   </g>
  </g>
 </g>
</svg>
