<?xml version="1.0" encoding="utf-8" standalone="no"?>
<!DOCTYPE svg PUBLIC "-//W3C//DTD SVG 1.1//EN"
  "http://www.w3.org/Graphics/SVG/1.1/DTD/svg11.dtd">
<svg xmlns:xlink="http://www.w3.org/1999/xlink" width="28.8pt" height="40.7025pt" viewBox="0 0 28.8 40.7025" xmlns="http://www.w3.org/2000/svg" version="1.1">
 <metadata>
  <rdf:RDF xmlns:dc="http://purl.org/dc/elements/1.1/" xmlns:cc="http://creativecommons.org/ns#" xmlns:rdf="http://www.w3.org/1999/02/22-rdf-syntax-ns#">
   <cc:Work>
    <dc:type rdf:resource="http://purl.org/dc/dcmitype/StillImage"/>
    <dc:date>2025-07-23T02:13:16.374579</dc:date>
    <dc:format>image/svg+xml</dc:format>
    <dc:creator>
     <cc:Agent>
      <dc:title>Matplotlib v3.6.3, https://matplotlib.org/</dc:title>
     </cc:Agent>
    </dc:creator>
   </cc:Work>
  </rdf:RDF>
 </metadata>
 <defs>
  <style type="text/css">*{stroke-linejoin: round; stroke-linecap: butt}</style>
 </defs>
 <g id="figure_1">
  <g id="patch_1">
   <path d="M 0 40.7025 
L 28.8 40.7025 
L 28.8 0 
L 0 0 
z
" style="fill: #ffffff"/>
  </g>
  <g id="axes_1">
   <g id="text_1">
    <!-- S -->
    <g style="fill: #333333" transform="translate(0 37.3875) scale(0.48 -0.48)">
     <defs>
      <path id="GL-DancingMen-53" d="M 2374 -243 
Q 2246 -243 2073 -176 
Q 1901 -109 1776 -9 
Q 1651 90 1651 179 
Q 1651 230 1708 323 
Q 1766 416 1914 614 
Q 2195 998 2362 1267 
Q 1946 1478 1485 1594 
Q 1024 1530 576 1331 
Q 646 1088 794 704 
Q 864 531 893 435 
Q 922 339 922 256 
Q 922 205 848 109 
Q 774 13 617 -64 
Q 461 -141 224 -141 
Q 96 -141 35 -61 
Q -26 19 -26 83 
Q -26 160 96 214 
Q 218 269 499 333 
Q 339 806 268 1049 
Q 198 1293 198 1408 
Q 198 1536 332 1613 
Q 467 1690 681 1734 
Q 896 1779 1389 1856 
Q 1402 2080 1453 2483 
Q 819 2624 566 2733 
Q 314 2842 314 2970 
Q 314 3053 640 4032 
Q 730 4256 890 4256 
Q 941 4256 1001 4201 
Q 1062 4147 1062 4083 
Q 1062 4026 954 3757 
Q 800 3373 698 3072 
Q 1030 2893 1472 2784 
L 1523 3142 
Q 1530 3162 1536 3213 
Q 1542 3264 1574 3283 
Q 1414 3322 1324 3440 
Q 1235 3558 1235 3706 
Q 1235 3936 1414 4121 
Q 1594 4307 1888 4307 
Q 2086 4307 2211 4163 
Q 2336 4019 2336 3834 
Q 2336 3622 2201 3468 
Q 2067 3315 1875 3283 
Q 1901 3206 1901 3181 
Q 1901 3155 1869 2995 
L 1824 2771 
Q 2368 2861 2688 2970 
L 2643 3360 
Q 2586 3802 2586 3930 
Q 2586 4064 2650 4109 
L 2861 5184 
L 3814 5082 
L 3648 4256 
L 3053 4307 
L 2989 4006 
Q 3002 3981 3002 3917 
Q 3040 3360 3040 2944 
Q 3040 2810 2953 2739 
Q 2867 2669 2710 2630 
Q 2554 2592 2240 2547 
Q 2144 2528 2025 2512 
Q 1907 2496 1773 2470 
Q 1728 2112 1702 1830 
Q 2221 1702 2480 1580 
Q 2739 1459 2739 1318 
Q 2739 1229 2617 1014 
Q 2496 800 2125 282 
Q 2394 179 2502 105 
Q 2611 32 2611 -70 
Q 2611 -154 2537 -198 
Q 2464 -243 2374 -243 
z
M 3462 4870 
L 3149 4896 
L 3110 4595 
L 3386 4570 
L 3462 4870 
z
M 1760 3533 
Q 1856 3533 1945 3593 
Q 2035 3654 2035 3795 
Q 2035 3898 1977 3958 
Q 1920 4019 1824 4019 
Q 1715 4019 1619 3958 
Q 1523 3898 1523 3757 
Q 1523 3667 1587 3600 
Q 1651 3533 1760 3533 
z
" transform="scale(0.015625)"/>
     </defs>
     <use xlink:href="#GL-DancingMen-53"/>
    </g>
   </g>
  </g>
 </g>
</svg>
