<?xml version="1.0" encoding="utf-8" standalone="no"?>
<!DOCTYPE svg PUBLIC "-//W3C//DTD SVG 1.1//EN"
  "http://www.w3.org/Graphics/SVG/1.1/DTD/svg11.dtd">
<svg xmlns:xlink="http://www.w3.org/1999/xlink" width="28.8pt" height="39.5475pt" viewBox="0 0 28.8 39.5475" xmlns="http://www.w3.org/2000/svg" version="1.1">
 <metadata>
  <rdf:RDF xmlns:dc="http://purl.org/dc/elements/1.1/" xmlns:cc="http://creativecommons.org/ns#" xmlns:rdf="http://www.w3.org/1999/02/22-rdf-syntax-ns#">
   <cc:Work>
    <dc:type rdf:resource="http://purl.org/dc/dcmitype/StillImage"/>
    <dc:date>2025-07-23T02:13:16.589146</dc:date>
    <dc:format>image/svg+xml</dc:format>
    <dc:creator>
     <cc:Agent>
      <dc:title>Matplotlib v3.6.3, https://matplotlib.org/</dc:title>
     </cc:Agent>
    </dc:creator>
   </cc:Work>
  </rdf:RDF>
 </metadata>
 <defs>
  <style type="text/css">*{stroke-linejoin: round; stroke-linecap: butt}</style>
 </defs>
 <g id="figure_1">
  <g id="patch_1">
   <path d="M 0 39.5475 
L 28.8 39.5475 
L 28.8 -0 
L 0 -0 
z
" style="fill: #ffffff"/>
  </g>
  <g id="axes_1">
   <g id="text_1">
    <!-- X -->
    <g style="fill: #333333" transform="translate(0 36.2325) scale(0.48 -0.48)">
     <defs>
      <path id="GL-DancingMen-58" d="M -115 -230 
L -26 595 
L 576 595 
L 602 934 
Q 602 947 595 956 
Q 589 966 589 979 
Q 589 1139 1085 1622 
Q 1581 2106 2189 2547 
L 2234 2957 
Q 1715 3085 1456 3206 
Q 1197 3328 1197 3469 
Q 1197 3565 1315 3773 
Q 1434 3981 1811 4506 
Q 1542 4608 1433 4681 
Q 1325 4755 1325 4858 
Q 1325 4941 1398 4985 
Q 1472 5030 1562 5030 
Q 1690 5030 1862 4963 
Q 2035 4896 2160 4797 
Q 2285 4698 2285 4608 
Q 2285 4557 2227 4464 
Q 2170 4371 2022 4173 
Q 1741 3789 1574 3520 
Q 1990 3309 2451 3194 
Q 2880 3251 3360 3456 
Q 3290 3699 3142 4083 
Q 3072 4256 3043 4352 
Q 3014 4448 3014 4531 
Q 3014 4582 3088 4681 
Q 3162 4781 3318 4857 
Q 3475 4934 3712 4934 
Q 3840 4934 3901 4851 
Q 3962 4768 3962 4704 
Q 3962 4627 3840 4572 
Q 3718 4518 3437 4454 
Q 3597 3981 3667 3737 
Q 3738 3494 3738 3379 
Q 3738 3283 3648 3216 
Q 3558 3149 3302 3078 
Q 3046 3008 2547 2931 
Q 2490 2202 2413 1645 
Q 2406 1626 2400 1574 
Q 2394 1523 2362 1504 
Q 2522 1466 2611 1347 
Q 2701 1229 2701 1082 
Q 2701 851 2521 665 
Q 2342 480 2048 480 
Q 1850 480 1725 624 
Q 1600 768 1600 954 
Q 1600 1165 1734 1321 
Q 1869 1478 2061 1504 
Q 2035 1542 2035 1606 
Q 2035 1645 2054 1747 
Q 2093 1907 2125 2144 
Q 1498 1632 947 966 
L 826 -243 
L -115 -230 
z
M 2112 768 
Q 2221 768 2317 829 
Q 2413 890 2413 1030 
Q 2413 1120 2349 1187 
Q 2285 1254 2176 1254 
Q 2080 1254 1990 1193 
Q 1901 1133 1901 992 
Q 1901 890 1958 829 
Q 2016 768 2112 768 
z
M 512 19 
L 538 320 
L 237 320 
L 211 19 
L 512 19 
z
" transform="scale(0.015625)"/>
     </defs>
     <use xlink:href="#GL-DancingMen-58"/>
    </g>
   </g>
  </g>
 </g>
</svg>
