<?xml version="1.0" encoding="utf-8" standalone="no"?>
<!DOCTYPE svg PUBLIC "-//W3C//DTD SVG 1.1//EN"
  "http://www.w3.org/Graphics/SVG/1.1/DTD/svg11.dtd">
<svg xmlns:xlink="http://www.w3.org/1999/xlink" width="72pt" height="72pt" viewBox="0 0 72 72" xmlns="http://www.w3.org/2000/svg" version="1.1">
 <metadata>
  <rdf:RDF xmlns:dc="http://purl.org/dc/elements/1.1/" xmlns:cc="http://creativecommons.org/ns#" xmlns:rdf="http://www.w3.org/1999/02/22-rdf-syntax-ns#">
   <cc:Work>
    <dc:type rdf:resource="http://purl.org/dc/dcmitype/StillImage"/>
    <dc:date>2025-07-23T01:47:42.254159</dc:date>
    <dc:format>image/svg+xml</dc:format>
    <dc:creator>
     <cc:Agent>
      <dc:title>Matplotlib v3.6.3, https://matplotlib.org/</dc:title>
     </cc:Agent>
    </dc:creator>
   </cc:Work>
  </rdf:RDF>
 </metadata>
 <defs>
  <style type="text/css">*{stroke-linejoin: round; stroke-linecap: butt}</style>
 </defs>
 <g id="figure_1">
  <g id="patch_1">
   <path d="M 0 72 
L 72 72 
L 72 0 
L 0 0 
z
" style="fill: #ffffff"/>
  </g>
  <g id="axes_1">
   <g id="text_1">
    <!-- b -->
    <g style="fill: #333333" transform="translate(24.4575 52.17375) scale(0.48 -0.48)">
     <defs>
      <path id="GL-DancingMen-62" d="M 544 -269 
Q 269 -269 86 -192 
Q -96 -115 -96 58 
Q -96 192 45 192 
Q 64 192 218 166 
Q 442 122 442 122 
Q 909 1414 1619 2067 
Q 1715 3046 1766 3392 
Q 1773 3411 1779 3462 
Q 1786 3514 1818 3533 
Q 1658 3578 1568 3693 
Q 1478 3808 1478 3955 
Q 1478 4186 1657 4371 
Q 1837 4557 2131 4557 
Q 2330 4557 2454 4413 
Q 2579 4269 2579 4083 
Q 2579 3872 2444 3718 
Q 2310 3565 2118 3533 
Q 2144 3482 2144 3418 
Q 2144 3360 2118 3251 
Q 2035 2861 1946 2080 
Q 2464 1952 2723 1830 
Q 2982 1709 2982 1568 
Q 2982 1478 2860 1264 
Q 2739 1050 2368 531 
Q 2630 435 2742 358 
Q 2854 282 2854 179 
Q 2854 96 2780 51 
Q 2707 6 2618 6 
Q 2490 6 2317 73 
Q 2144 141 2019 240 
Q 1894 339 1894 429 
Q 1894 480 1958 585 
Q 2022 691 2170 883 
Q 2438 1254 2605 1517 
Q 2221 1722 1792 1818 
Q 1408 1414 1197 953 
Q 986 493 794 -128 
Q 755 -269 544 -269 
z
M 2003 3782 
Q 2099 3782 2188 3843 
Q 2278 3904 2278 4045 
Q 2278 4147 2220 4208 
Q 2163 4269 2067 4269 
Q 1965 4269 1865 4208 
Q 1766 4147 1766 4006 
Q 1766 3917 1830 3849 
Q 1894 3782 2003 3782 
z
" transform="scale(0.015625)"/>
     </defs>
     <use xlink:href="#GL-DancingMen-62"/>
    </g>
   </g>
  </g>
 </g>
</svg>
