<?xml version="1.0" encoding="utf-8" standalone="no"?>
<!DOCTYPE svg PUBLIC "-//W3C//DTD SVG 1.1//EN"
  "http://www.w3.org/Graphics/SVG/1.1/DTD/svg11.dtd">
<svg xmlns:xlink="http://www.w3.org/1999/xlink" width="72pt" height="72pt" viewBox="0 0 72 72" xmlns="http://www.w3.org/2000/svg" version="1.1">
 <metadata>
  <rdf:RDF xmlns:dc="http://purl.org/dc/elements/1.1/" xmlns:cc="http://creativecommons.org/ns#" xmlns:rdf="http://www.w3.org/1999/02/22-rdf-syntax-ns#">
   <cc:Work>
    <dc:type rdf:resource="http://purl.org/dc/dcmitype/StillImage"/>
    <dc:date>2025-07-23T01:47:42.461819</dc:date>
    <dc:format>image/svg+xml</dc:format>
    <dc:creator>
     <cc:Agent>
      <dc:title>Matplotlib v3.6.3, https://matplotlib.org/</dc:title>
     </cc:Agent>
    </dc:creator>
   </cc:Work>
  </rdf:RDF>
 </metadata>
 <defs>
  <style type="text/css">*{stroke-linejoin: round; stroke-linecap: butt}</style>
 </defs>
 <g id="figure_1">
  <g id="patch_1">
   <path d="M 0 72 
L 72 72 
L 72 0 
L 0 0 
z
" style="fill: #ffffff"/>
  </g>
  <g id="axes_1">
   <g id="text_1">
    <!-- d -->
    <g style="fill: #333333" transform="translate(23.3775 52.17375) scale(0.48 -0.48)">
     <defs>
      <path id="GL-DancingMen-64" d="M 1472 -307 
Q 1274 -307 1146 -163 
Q 1018 -19 1018 166 
Q 1018 378 1152 531 
Q 1286 685 1485 717 
Q 1478 723 1462 752 
Q 1446 781 1446 819 
Q 1446 858 1504 1101 
Q 1562 1344 1670 2208 
Q 1414 2541 1260 3069 
Q 1107 3597 1056 4230 
Q 723 4166 659 4166 
Q 576 4166 541 4201 
Q 506 4237 506 4320 
Q 506 4461 650 4521 
Q 794 4582 1005 4582 
Q 1402 4582 1408 4429 
Q 1440 3821 1571 3289 
Q 1702 2758 1856 2496 
Q 2214 2893 2419 3341 
Q 2624 3789 2810 4384 
Q 2848 4518 3059 4518 
Q 3334 4518 3513 4441 
Q 3693 4365 3693 4192 
Q 3693 4058 3558 4058 
Q 3494 4058 3347 4096 
L 3155 4134 
Q 2701 2854 1984 2182 
L 1933 1741 
Q 2374 1293 2758 787 
Q 3142 282 3142 83 
Q 3142 -6 3100 -57 
Q 3059 -109 2995 -109 
Q 2867 -109 2784 58 
Q 2490 653 1894 1344 
Q 1869 1165 1856 1065 
Q 1843 966 1837 915 
Q 1824 813 1814 774 
Q 1805 736 1779 717 
Q 1946 678 2032 560 
Q 2118 442 2118 294 
Q 2118 64 1939 -121 
Q 1760 -307 1472 -307 
z
M 1530 -19 
Q 1638 -19 1734 41 
Q 1830 102 1830 243 
Q 1830 333 1766 400 
Q 1702 467 1594 467 
Q 1498 467 1408 406 
Q 1318 346 1318 205 
Q 1318 102 1379 41 
Q 1440 -19 1530 -19 
z
" transform="scale(0.015625)"/>
     </defs>
     <use xlink:href="#GL-DancingMen-64"/>
    </g>
   </g>
  </g>
 </g>
</svg>
