<?xml version="1.0" encoding="utf-8" standalone="no"?>
<!DOCTYPE svg PUBLIC "-//W3C//DTD SVG 1.1//EN"
  "http://www.w3.org/Graphics/SVG/1.1/DTD/svg11.dtd">
<svg xmlns:xlink="http://www.w3.org/1999/xlink" width="72pt" height="72pt" viewBox="0 0 72 72" xmlns="http://www.w3.org/2000/svg" version="1.1">
 <metadata>
  <rdf:RDF xmlns:dc="http://purl.org/dc/elements/1.1/" xmlns:cc="http://creativecommons.org/ns#" xmlns:rdf="http://www.w3.org/1999/02/22-rdf-syntax-ns#">
   <cc:Work>
    <dc:type rdf:resource="http://purl.org/dc/dcmitype/StillImage"/>
    <dc:date>2025-07-23T01:47:42.640782</dc:date>
    <dc:format>image/svg+xml</dc:format>
    <dc:creator>
     <cc:Agent>
      <dc:title>Matplotlib v3.6.3, https://matplotlib.org/</dc:title>
     </cc:Agent>
    </dc:creator>
   </cc:Work>
  </rdf:RDF>
 </metadata>
 <defs>
  <style type="text/css">*{stroke-linejoin: round; stroke-linecap: butt}</style>
 </defs>
 <g id="figure_1">
  <g id="patch_1">
   <path d="M 0 72 
L 72 72 
L 72 0 
L 0 0 
z
" style="fill: #ffffff"/>
  </g>
  <g id="axes_1">
   <g id="text_1">
    <!-- j -->
    <g style="fill: #333333" transform="translate(24.84 52.17375) scale(0.48 -0.48)">
     <defs>
      <path id="GL-DancingMen-6a" d="M 1709 -442 
Q 1568 -442 1398 -390 
Q 1229 -339 1110 -265 
Q 992 -192 992 -128 
Q 992 -32 1158 928 
L 1331 2016 
Q 941 1939 570 1779 
Q 627 1581 787 1165 
Q 838 1024 876 905 
Q 915 787 915 704 
Q 915 653 841 557 
Q 768 461 611 384 
Q 454 307 218 307 
Q 90 307 29 387 
Q -32 467 -32 531 
Q -32 614 86 665 
Q 205 717 493 781 
Q 339 1242 265 1494 
Q 192 1747 192 1856 
Q 192 1990 326 2067 
Q 461 2144 688 2189 
Q 915 2234 1382 2304 
Q 1440 3034 1517 3597 
Q 1523 3616 1529 3664 
Q 1536 3712 1568 3731 
Q 1408 3776 1318 3891 
Q 1229 4006 1229 4154 
Q 1229 4384 1408 4569 
Q 1587 4755 1882 4755 
Q 2080 4755 2205 4611 
Q 2330 4467 2330 4282 
Q 2330 4070 2195 3916 
Q 2061 3763 1869 3731 
Q 1894 3693 1894 3629 
Q 1894 3590 1875 3494 
Q 1837 3334 1805 3091 
Q 2099 3334 2361 3606 
Q 2624 3878 2995 4294 
Q 3104 4416 3181 4416 
Q 3232 4416 3286 4381 
Q 3341 4346 3341 4269 
Q 3341 4166 3097 3894 
Q 2854 3622 2480 3289 
Q 2106 2957 1741 2694 
Q 1709 2509 1651 2003 
Q 1549 1030 1382 32 
Q 1670 19 1820 -41 
Q 1971 -102 1971 -256 
Q 1971 -339 1888 -390 
Q 1805 -442 1709 -442 
z
M 1754 3981 
Q 1850 3981 1939 4041 
Q 2029 4102 2029 4243 
Q 2029 4346 1971 4406 
Q 1914 4467 1818 4467 
Q 1709 4467 1613 4406 
Q 1517 4346 1517 4205 
Q 1517 4115 1584 4048 
Q 1651 3981 1754 3981 
z
" transform="scale(0.015625)"/>
     </defs>
     <use xlink:href="#GL-DancingMen-6a"/>
    </g>
   </g>
  </g>
 </g>
</svg>
