<?xml version="1.0" encoding="utf-8" standalone="no"?>
<!DOCTYPE svg PUBLIC "-//W3C//DTD SVG 1.1//EN"
  "http://www.w3.org/Graphics/SVG/1.1/DTD/svg11.dtd">
<svg xmlns:xlink="http://www.w3.org/1999/xlink" width="72pt" height="72pt" viewBox="0 0 72 72" xmlns="http://www.w3.org/2000/svg" version="1.1">
 <metadata>
  <rdf:RDF xmlns:dc="http://purl.org/dc/elements/1.1/" xmlns:cc="http://creativecommons.org/ns#" xmlns:rdf="http://www.w3.org/1999/02/22-rdf-syntax-ns#">
   <cc:Work>
    <dc:type rdf:resource="http://purl.org/dc/dcmitype/StillImage"/>
    <dc:date>2025-07-23T01:47:42.658532</dc:date>
    <dc:format>image/svg+xml</dc:format>
    <dc:creator>
     <cc:Agent>
      <dc:title>Matplotlib v3.6.3, https://matplotlib.org/</dc:title>
     </cc:Agent>
    </dc:creator>
   </cc:Work>
  </rdf:RDF>
 </metadata>
 <defs>
  <style type="text/css">*{stroke-linejoin: round; stroke-linecap: butt}</style>
 </defs>
 <g id="figure_1">
  <g id="patch_1">
   <path d="M 0 72 
L 72 72 
L 72 0 
L 0 0 
z
" style="fill: #ffffff"/>
  </g>
  <g id="axes_1">
   <g id="text_1">
    <!-- J -->
    <g style="fill: #333333" transform="translate(22.72875 54.8175) scale(0.48 -0.48)">
     <defs>
      <path id="GL-DancingMen-4a" d="M 1709 -454 
Q 1568 -454 1398 -403 
Q 1229 -352 1110 -278 
Q 992 -205 992 -141 
Q 992 -90 1152 896 
Q 1299 1786 1331 2010 
Q 922 1920 570 1766 
Q 627 1568 787 1152 
Q 838 1011 876 892 
Q 915 774 915 691 
Q 915 640 841 544 
Q 768 448 611 371 
Q 454 294 218 294 
Q 90 294 29 374 
Q -32 454 -32 518 
Q -32 602 86 653 
Q 205 704 493 768 
Q 339 1229 265 1481 
Q 192 1734 192 1843 
Q 192 1978 326 2054 
Q 461 2131 688 2176 
Q 915 2221 1382 2291 
Q 1440 3021 1517 3584 
Q 1523 3603 1529 3651 
Q 1536 3699 1568 3718 
Q 1408 3763 1318 3881 
Q 1229 4000 1229 4147 
Q 1229 4378 1408 4560 
Q 1587 4742 1882 4742 
Q 2080 4742 2205 4598 
Q 2330 4454 2330 4269 
Q 2330 4058 2195 3904 
Q 2061 3750 1869 3718 
Q 1894 3680 1894 3616 
Q 1894 3578 1875 3482 
Q 1837 3322 1805 3078 
Q 2406 3571 2982 4256 
L 3104 5472 
L 4045 5459 
L 3955 4634 
L 3354 4634 
L 3328 4294 
L 3341 4243 
Q 3341 4090 2841 3606 
Q 2342 3123 1741 2682 
Q 1709 2496 1651 1990 
Q 1549 1018 1382 19 
Q 1670 6 1820 -54 
Q 1971 -115 1971 -269 
Q 1971 -352 1888 -403 
Q 1805 -454 1709 -454 
z
M 3693 4909 
L 3718 5210 
L 3418 5210 
L 3392 4909 
L 3693 4909 
z
M 1754 3968 
Q 1850 3968 1939 4029 
Q 2029 4090 2029 4230 
Q 2029 4333 1971 4393 
Q 1914 4454 1818 4454 
Q 1709 4454 1613 4393 
Q 1517 4333 1517 4192 
Q 1517 4102 1584 4035 
Q 1651 3968 1754 3968 
z
" transform="scale(0.015625)"/>
     </defs>
     <use xlink:href="#GL-DancingMen-4a"/>
    </g>
   </g>
  </g>
 </g>
</svg>
