<?xml version="1.0" encoding="utf-8" standalone="no"?>
<!DOCTYPE svg PUBLIC "-//W3C//DTD SVG 1.1//EN"
  "http://www.w3.org/Graphics/SVG/1.1/DTD/svg11.dtd">
<svg xmlns:xlink="http://www.w3.org/1999/xlink" width="72pt" height="72pt" viewBox="0 0 72 72" xmlns="http://www.w3.org/2000/svg" version="1.1">
 <metadata>
  <rdf:RDF xmlns:dc="http://purl.org/dc/elements/1.1/" xmlns:cc="http://creativecommons.org/ns#" xmlns:rdf="http://www.w3.org/1999/02/22-rdf-syntax-ns#">
   <cc:Work>
    <dc:type rdf:resource="http://purl.org/dc/dcmitype/StillImage"/>
    <dc:date>2025-07-23T01:47:42.702908</dc:date>
    <dc:format>image/svg+xml</dc:format>
    <dc:creator>
     <cc:Agent>
      <dc:title>Matplotlib v3.6.3, https://matplotlib.org/</dc:title>
     </cc:Agent>
    </dc:creator>
   </cc:Work>
  </rdf:RDF>
 </metadata>
 <defs>
  <style type="text/css">*{stroke-linejoin: round; stroke-linecap: butt}</style>
 </defs>
 <g id="figure_1">
  <g id="patch_1">
   <path d="M 0 72 
L 72 72 
L 72 0 
L 0 0 
z
" style="fill: #ffffff"/>
  </g>
  <g id="axes_1">
   <g id="text_1">
    <!-- l -->
    <g style="fill: #333333" transform="translate(25.2975 52.17375) scale(0.48 -0.48)">
     <defs>
      <path id="GL-DancingMen-6c" d="M 2394 -83 
Q 2266 -83 2093 -16 
Q 1920 51 1795 153 
Q 1670 256 1670 346 
Q 1670 397 1731 489 
Q 1792 582 1933 781 
Q 2170 1101 2381 1434 
Q 1914 1664 1504 1754 
Q 1075 1709 595 1491 
Q 653 1293 813 877 
Q 864 736 902 617 
Q 941 499 941 416 
Q 941 365 867 269 
Q 794 173 637 96 
Q 480 19 243 19 
Q 115 19 54 99 
Q -6 179 -6 243 
Q -6 326 112 377 
Q 230 429 518 493 
Q 365 954 291 1206 
Q 218 1459 218 1568 
Q 218 1702 352 1779 
Q 486 1856 713 1901 
Q 941 1946 1408 2016 
Q 1421 2259 1472 2643 
Q 838 2784 585 2893 
Q 333 3002 333 3130 
Q 333 3194 461 3594 
Q 589 3994 659 4192 
Q 742 4416 909 4416 
Q 960 4416 1021 4365 
Q 1082 4314 1082 4243 
Q 1082 4198 979 3942 
Q 960 3891 880 3686 
Q 800 3482 717 3232 
Q 1018 3072 1491 2944 
L 1542 3309 
Q 1549 3328 1555 3376 
Q 1562 3424 1594 3443 
Q 1434 3488 1344 3606 
Q 1254 3725 1254 3872 
Q 1254 4102 1433 4284 
Q 1613 4467 1907 4467 
Q 2106 4467 2230 4323 
Q 2355 4179 2355 3994 
Q 2355 3782 2220 3628 
Q 2086 3475 1894 3443 
Q 1901 3437 1917 3408 
Q 1933 3379 1933 3341 
Q 1933 3334 1907 3232 
Q 2342 3142 2630 2998 
Q 2918 2854 2918 2707 
Q 2918 2592 2739 2448 
Q 2560 2304 2288 2176 
Q 2016 2048 1766 1984 
Q 2310 1856 2534 1737 
Q 2758 1619 2758 1478 
Q 2758 1389 2640 1177 
Q 2522 966 2144 442 
Q 2406 346 2518 269 
Q 2630 192 2630 96 
Q 2630 6 2556 -38 
Q 2483 -83 2394 -83 
z
M 1779 3693 
Q 1875 3693 1964 3753 
Q 2054 3814 2054 3955 
Q 2054 4058 1996 4118 
Q 1939 4179 1843 4179 
Q 1734 4179 1638 4118 
Q 1542 4058 1542 3917 
Q 1542 3827 1609 3760 
Q 1677 3693 1779 3693 
z
M 1754 2330 
Q 2278 2509 2483 2694 
Q 2253 2835 1843 2944 
Q 1798 2733 1754 2330 
z
" transform="scale(0.015625)"/>
     </defs>
     <use xlink:href="#GL-DancingMen-6c"/>
    </g>
   </g>
  </g>
 </g>
</svg>
