<?xml version="1.0" encoding="utf-8" standalone="no"?>
<!DOCTYPE svg PUBLIC "-//W3C//DTD SVG 1.1//EN"
  "http://www.w3.org/Graphics/SVG/1.1/DTD/svg11.dtd">
<svg xmlns:xlink="http://www.w3.org/1999/xlink" width="72pt" height="72pt" viewBox="0 0 72 72" xmlns="http://www.w3.org/2000/svg" version="1.1">
 <metadata>
  <rdf:RDF xmlns:dc="http://purl.org/dc/elements/1.1/" xmlns:cc="http://creativecommons.org/ns#" xmlns:rdf="http://www.w3.org/1999/02/22-rdf-syntax-ns#">
   <cc:Work>
    <dc:type rdf:resource="http://purl.org/dc/dcmitype/StillImage"/>
    <dc:date>2025-07-23T01:47:42.830122</dc:date>
    <dc:format>image/svg+xml</dc:format>
    <dc:creator>
     <cc:Agent>
      <dc:title>Matplotlib v3.6.3, https://matplotlib.org/</dc:title>
     </cc:Agent>
    </dc:creator>
   </cc:Work>
  </rdf:RDF>
 </metadata>
 <defs>
  <style type="text/css">*{stroke-linejoin: round; stroke-linecap: butt}</style>
 </defs>
 <g id="figure_1">
  <g id="patch_1">
   <path d="M 0 72 
L 72 72 
L 72 0 
L 0 0 
z
" style="fill: #ffffff"/>
  </g>
  <g id="axes_1">
   <g id="text_1">
    <!-- P -->
    <g style="fill: #333333" transform="translate(26.56875 54.64875) scale(0.48 -0.48)">
     <defs>
      <path id="GL-DancingMen-50" d="M 1958 -582 
Q 1824 -582 1654 -531 
Q 1485 -480 1366 -406 
Q 1248 -333 1248 -269 
Q 1248 -218 1321 243 
Q 1395 704 1466 1133 
L 1536 1568 
Q 1274 1216 1123 848 
Q 973 480 800 -70 
Q 762 -211 550 -211 
Q 275 -211 92 -134 
Q -90 -58 -90 115 
Q -90 256 51 256 
Q 102 256 250 224 
Q 461 179 448 179 
Q 922 1485 1626 2131 
Q 1722 3091 1773 3456 
Q 1779 3475 1785 3523 
Q 1792 3571 1824 3590 
Q 1664 3635 1581 3750 
Q 1498 3866 1498 4006 
Q 1498 4192 1610 4355 
Q 1722 4518 1914 4576 
L 1971 5555 
L 2950 5555 
L 2886 4704 
L 2259 4704 
L 2246 4602 
Q 2400 4538 2493 4432 
Q 2586 4326 2586 4141 
Q 2586 3936 2445 3769 
Q 2304 3603 2125 3590 
Q 2131 3584 2147 3555 
Q 2163 3526 2163 3488 
Q 2163 3475 2156 3462 
Q 2150 3450 2150 3430 
Q 2067 3072 2022 2745 
Q 1978 2419 1914 1869 
Q 1901 1747 1830 1177 
Q 1760 608 1638 -109 
Q 1920 -122 2070 -182 
Q 2221 -243 2221 -397 
Q 2221 -480 2141 -531 
Q 2061 -582 1958 -582 
z
M 2624 5005 
L 2650 5306 
L 2323 5306 
L 2310 5005 
L 2624 5005 
z
M 2010 3840 
Q 2106 3840 2195 3901 
Q 2285 3962 2285 4102 
Q 2285 4205 2227 4265 
Q 2170 4326 2074 4326 
Q 1965 4326 1869 4265 
Q 1773 4205 1773 4064 
Q 1773 3974 1840 3907 
Q 1907 3840 2010 3840 
z
" transform="scale(0.015625)"/>
     </defs>
     <use xlink:href="#GL-DancingMen-50"/>
    </g>
   </g>
  </g>
 </g>
</svg>
