<?xml version="1.0" encoding="utf-8" standalone="no"?>
<!DOCTYPE svg PUBLIC "-//W3C//DTD SVG 1.1//EN"
  "http://www.w3.org/Graphics/SVG/1.1/DTD/svg11.dtd">
<svg xmlns:xlink="http://www.w3.org/1999/xlink" width="72pt" height="72pt" viewBox="0 0 72 72" xmlns="http://www.w3.org/2000/svg" version="1.1">
 <metadata>
  <rdf:RDF xmlns:dc="http://purl.org/dc/elements/1.1/" xmlns:cc="http://creativecommons.org/ns#" xmlns:rdf="http://www.w3.org/1999/02/22-rdf-syntax-ns#">
   <cc:Work>
    <dc:type rdf:resource="http://purl.org/dc/dcmitype/StillImage"/>
    <dc:date>2025-07-23T01:47:43.002827</dc:date>
    <dc:format>image/svg+xml</dc:format>
    <dc:creator>
     <cc:Agent>
      <dc:title>Matplotlib v3.6.3, https://matplotlib.org/</dc:title>
     </cc:Agent>
    </dc:creator>
   </cc:Work>
  </rdf:RDF>
 </metadata>
 <defs>
  <style type="text/css">*{stroke-linejoin: round; stroke-linecap: butt}</style>
 </defs>
 <g id="figure_1">
  <g id="patch_1">
   <path d="M 0 72 
L 72 72 
L 72 0 
L 0 0 
z
" style="fill: #ffffff"/>
  </g>
  <g id="axes_1">
   <g id="text_1">
    <!-- V -->
    <g style="fill: #333333" transform="translate(24.96 54.64875) scale(0.48 -0.48)">
     <defs>
      <path id="GL-DancingMen-56" d="M 2387 -582 
Q 2246 -582 2080 -531 
Q 1914 -480 1795 -406 
Q 1677 -333 1677 -269 
Q 1677 -224 1731 105 
Q 1786 435 1811 608 
Q 1971 1581 2010 1856 
Q 1568 1798 1280 1737 
Q 992 1677 672 1594 
Q 435 1530 371 1530 
Q 186 1530 186 1952 
Q 186 2234 250 2349 
Q 314 2464 435 2464 
Q 531 2464 566 2413 
Q 602 2362 602 2253 
Q 602 2208 576 2003 
Q 1350 2170 2061 2189 
Q 2112 2835 2202 3456 
Q 2208 3475 2214 3523 
Q 2221 3571 2246 3590 
Q 2086 3635 2006 3750 
Q 1926 3866 1926 4006 
Q 1926 4192 2035 4355 
Q 2144 4518 2336 4576 
L 2400 5555 
L 3373 5555 
L 3309 4704 
L 2688 4704 
L 2675 4602 
Q 2829 4538 2921 4432 
Q 3014 4326 3014 4141 
Q 3014 3936 2870 3769 
Q 2726 3603 2547 3590 
Q 2554 3584 2570 3555 
Q 2586 3526 2586 3488 
Q 2586 3475 2579 3462 
Q 2573 3450 2573 3430 
Q 2490 3072 2445 2745 
Q 2400 2419 2336 1869 
Q 2323 1747 2252 1177 
Q 2182 608 2061 -109 
Q 2349 -122 2499 -182 
Q 2650 -243 2650 -397 
Q 2650 -480 2566 -531 
Q 2483 -582 2387 -582 
z
M 3046 5005 
L 3072 5306 
L 2752 5306 
L 2739 5005 
L 3046 5005 
z
M 2438 3840 
Q 2528 3840 2621 3901 
Q 2714 3962 2714 4102 
Q 2714 4205 2656 4265 
Q 2598 4326 2502 4326 
Q 2394 4326 2298 4265 
Q 2202 4205 2202 4064 
Q 2202 3974 2266 3907 
Q 2330 3840 2438 3840 
z
" transform="scale(0.015625)"/>
     </defs>
     <use xlink:href="#GL-DancingMen-56"/>
    </g>
   </g>
  </g>
 </g>
</svg>
